<?xml version="1.0" encoding="utf-8"?>
<!-- Generator: Adobe Illustrator 19.0.0, SVG Export Plug-In . SVG Version: 6.00 Build 0)  -->
<svg version="1.1" id="layer" xmlns="http://www.w3.org/2000/svg" xmlns:xlink="http://www.w3.org/1999/xlink" x="0px" y="0px"
	 viewBox="-153 -46 652 652" style="enable-background:new -153 -46 652 652;" xml:space="preserve">
<style type="text/css">
	.st0{fill:#BA0600;}
</style>
<path class="st0" d="M-96.7,297.3h-23.5v-0.6c1.7-0.3,2.9-0.6,3.6-0.8c0.8-0.3,1.5-0.7,2.3-1.4c0.8-0.7,1.3-1.6,1.6-2.8
	c0.3-1.2,0.5-2.8,0.5-4.9c0.1-2.5,0.1-6.5,0.1-12.2c0-7.2-0.1-14.4-0.2-21.6h-1.3c-4.4,0-8.1,0.9-11.1,2.8c-2.9,1.9-4.8,4.6-5.6,8.4
	h-0.8l0.9-12h43l0.9,12H-87c-1.8-7.5-7.3-11.2-16.7-11.2h-1.3c-0.1,7.3-0.2,14.5-0.2,21.8c0,6.5,0,10.6,0.1,12.5
	c0.1,1.6,0.3,2.9,0.6,4c0.3,1.1,0.7,1.9,1.1,2.5c0.4,0.6,1.1,1.1,1.9,1.6c0.9,0.4,1.6,0.7,2.1,0.8c0.6,0.1,1.5,0.3,2.7,0.5V297.3z
	 M-71.4,296.7v0.6h-14.8v-0.6c1.8-0.2,3.1-0.8,3.8-1.7c0.7-0.9,1.1-2.9,1.1-6v-31.5c0-0.6,0-1.1-0.1-1.5c-0.1-0.5-0.2-0.9-0.4-1.2
	c-0.1-0.3-0.3-0.6-0.5-0.8c-0.2-0.3-0.4-0.5-0.6-0.6c-0.3-0.2-0.5-0.3-0.6-0.4c-0.2-0.1-0.4-0.2-0.7-0.2c-0.3-0.1-0.5-0.1-0.6-0.1
	c-0.1,0-0.3-0.1-0.5-0.1h-0.4v-0.6l9.5-1.2h0.3V273c2.1-3.2,5.3-4.9,9.6-4.9c2.7,0,4.9,0.6,6.7,1.9c1.9,1.2,2.8,3.1,2.8,5.6V291
	c0,0.6,0,1.1,0.1,1.6c0,0.5,0.1,0.9,0.3,1.2c0.2,0.3,0.3,0.6,0.4,0.9c0.1,0.3,0.3,0.5,0.5,0.7c0.3,0.2,0.5,0.3,0.6,0.5
	c0.1,0.1,0.4,0.2,0.7,0.3c0.4,0.1,0.6,0.2,0.7,0.2c0.1,0,0.3,0.1,0.8,0.2c0.4,0,0.7,0.1,0.7,0.1v0.6h-15.1v-0.7
	c0.8-0.1,1.4-0.2,1.7-0.3c0.4-0.1,0.9-0.3,1.5-0.6c0.6-0.3,1.1-0.9,1.4-1.7c0.3-0.8,0.5-1.9,0.5-3.1c0-5.2,0-9.8-0.1-13.7
	c0-2.6-0.5-4.5-1.5-5.8c-0.9-1.3-2.5-1.9-4.7-1.9c-1.6,0-3.1,0.5-4.4,1.6c-1.3,1-2.2,2.5-2.7,4.6c-0.5,2.1-0.7,4.9-0.7,8.4
	c0,2.3,0,5,0.1,7.9c0,1.2,0.2,2.2,0.7,2.9c0.5,0.7,1.1,1.1,1.6,1.4C-73.3,296.3-72.5,296.5-71.4,296.7z M-24.1,290l0.8,0.2
	c-0.2,2-1.2,3.8-3.2,5.6c-1.9,1.7-4.7,2.5-8.2,2.5c-4.8,0-8.5-1.4-11.2-4.1c-2.6-2.7-3.9-6.2-3.9-10.5c0-4.2,1.3-7.8,3.9-10.9
	c2.6-3.1,6.2-4.6,10.8-4.6c3.5,0,6.3,1,8.3,3c2.1,2,3.2,4.4,3.4,7.3h-20c-0.2,1.2-0.3,2.7-0.3,4.5c0,2.5,0.3,4.7,1,6.5
	c0.7,1.9,1.7,3.3,2.8,4.2c1.2,0.9,2.3,1.6,3.4,2c1.1,0.4,2.3,0.6,3.4,0.6c2.5,0,4.5-0.6,6-1.7C-25.4,293.3-24.5,291.8-24.1,290z
	 M-43.3,277.4h14.4c-0.1-2.2-0.7-4.2-1.9-5.8c-1.1-1.7-2.7-2.5-4.6-2.5C-39.6,269.1-42.2,271.9-43.3,277.4z M48.4,297.3H27v-0.6
	c0.1,0,0.5-0.1,1.2-0.2c0.7-0.1,1.1-0.2,1.3-0.2c0.2,0,0.5-0.1,1-0.3c0.6-0.2,0.9-0.3,1-0.5c0.2-0.2,0.5-0.4,0.8-0.6
	c0.4-0.3,0.6-0.6,0.8-1c0.1-0.4,0.3-0.8,0.5-1.3c0.2-0.5,0.4-1.1,0.5-1.7c0.1-0.7,0.1-1.4,0.1-2.3c0.1-5.6,0.2-10.2,0.2-13.9H10.6
	c0,2,0,4.7,0,7.9c0,3.2,0.1,5.2,0.1,6c0,1.6,0.1,2.9,0.3,3.9c0.3,1,0.7,1.8,1.4,2.3c0.7,0.5,1.3,0.9,1.7,1c0.5,0.2,1.4,0.4,2.6,0.6
	c0.4,0.1,0.7,0.2,0.8,0.2v0.6H-3.2v-0.6c1.7-0.3,2.8-0.6,3.5-0.8c0.6-0.2,1.3-0.6,1.9-1.3c0.6-0.7,1-1.5,1.1-2.5
	c0.2-1,0.3-2.5,0.3-4.5c0.1-7.5,0.2-11.8,0.2-13c0-4.9,0-8.5-0.1-10.9c0-3.1-0.3-5.3-0.6-6.7c-0.3-1.4-0.9-2.3-1.8-2.8
	c-0.8-0.5-2.3-1-4.4-1.4v-0.6h20.7v0.6c-0.1,0-0.5,0.1-1,0.2c-0.5,0.1-0.8,0.2-1,0.3c-0.2,0-0.5,0.2-1,0.3c-0.5,0.1-0.8,0.3-1.1,0.5
	c-0.2,0.1-0.5,0.3-0.8,0.6c-0.3,0.3-0.6,0.6-0.8,0.9c-0.2,0.3-0.3,0.8-0.5,1.2c-0.2,0.5-0.3,1-0.3,1.6c-0.3,3-0.4,8-0.4,15h23.8
	c0-5.6-0.1-10.5-0.4-14.9c0-0.6-0.1-1.1-0.3-1.6c-0.1-0.5-0.3-0.9-0.5-1.2c-0.2-0.3-0.4-0.6-0.6-0.9c-0.1-0.3-0.4-0.5-0.8-0.7
	c-0.4-0.2-0.7-0.4-0.8-0.5c-0.2-0.1-0.5-0.3-1-0.4c-0.5-0.1-0.8-0.2-0.9-0.2c-0.1,0-0.4-0.1-1-0.2l-0.8-0.1v-0.6h20.9v0.6
	c-3.1,0.5-5,1.4-5.7,2.6c-0.7,1.2-1.1,3.9-1.2,8.2c-0.1,4.3-0.2,8-0.2,11c0,1.7,0,4.1,0.1,7.1c0,2.9,0.1,4.7,0.1,5.3
	c0,1.7,0.1,3.1,0.3,4.1c0.2,1.1,0.4,1.9,0.6,2.6c0.3,0.6,0.7,1.2,1.4,1.6c0.7,0.4,1.4,0.7,1.9,0.8c0.6,0.1,1.5,0.3,2.8,0.6V297.3z
	 M66.8,280.8c-1.1,1.3-3.3,2.7-6.5,4.3c-3.2,1.6-4.8,3.8-4.8,6.6c0,1.5,0.5,2.7,1.4,3.6s2.1,1.4,3.5,1.4c4,0,6.1-2.8,6.3-8.4
	C66.8,286.9,66.8,284.4,66.8,280.8z M78.5,294.3l0.5,0.3c-0.1,0.9-0.8,1.8-1.9,2.5c-1.2,0.7-2.7,1.1-4.5,1.1s-3.3-0.3-4.3-1
	c-1-0.7-1.5-1.7-1.6-2.8c-2.4,2.6-5.2,3.9-8.5,3.9c-2.6,0-4.7-0.6-6.2-1.9c-1.4-1.3-2.1-3-2.1-5.2c0-1.8,0.6-3.4,1.7-4.7
	c1.2-1.3,2.8-2.3,4.8-2.8c0.6-0.2,1.5-0.4,2.7-0.6c1.2-0.2,2.2-0.4,3-0.6c0.9-0.2,1.6-0.5,2.2-0.8c0.9-0.5,1.6-1.2,1.9-1.9
	c0.4-0.8,0.6-1.9,0.6-3.5c0-2-0.5-3.7-1.4-5c-0.9-1.4-2.2-2.1-3.9-2.1c-1.6,0-2.8,0.5-3.6,1.4c-0.4,0.5-0.9,1.5-1.4,3
	c-0.4,1.5-1.3,2.3-2.6,2.3c-0.6,0-1.2-0.2-1.7-0.6c-0.5-0.5-0.7-1.1-0.7-1.9c0-1.3,0.8-2.5,2.5-3.5c1.7-1,4.1-1.6,7.3-1.6
	c7.1,0,10.7,2.3,10.7,6.8v14.8c0,2.5,0.2,4.3,0.7,5.2c0.5,0.9,1.4,1.4,2.7,1.4C77,296.5,78,295.8,78.5,294.3z M94,297.3H79.2v-0.6
	c1.9-0.2,3.1-0.7,3.8-1.4c0.7-0.7,1-2.4,1-4.9v-12.8c0-5.2-1.3-7.8-3.8-7.8h-1.2v-0.6l9.3-1.4h0.2l0.8,6c1.9-3.7,4.6-5.6,8.1-5.6
	c1.6,0,2.8,0.4,3.6,1.1c0.8,0.7,1.2,1.4,1.2,2.1s-0.2,1.4-0.6,1.9c-0.4,0.5-0.9,0.8-1.7,0.8c-0.4,0-0.7,0-1-0.1
	c-0.3-0.1-0.5-0.3-0.8-0.5c-0.3-0.3-0.4-0.4-0.5-0.5c0-0.1-0.2-0.3-0.5-0.8c-0.9-1.3-1.8-1.9-2.6-1.9c-1,0-2,0.5-2.8,1.5
	c-0.8,0.9-1.4,2.2-1.8,3.6c-0.4,1.9-0.6,4.8-0.6,8.5c0,2.2,0,4.8,0.1,7.8c0,1.9,0.5,3.1,1.4,3.8c0.9,0.6,2.1,1,3.5,1.1V297.3z
	 M118.2,298h-1.1c-2.2-5.6-5.2-13.1-9.2-22.5c-1-2.5-1.9-4-2.7-4.7c-0.8-0.7-1.8-1.1-3.2-1.2v-0.6h14.9v0.6
	c-2.9,0.3-4.3,1.1-4.3,2.5c0,0.6,0.5,2.2,1.5,4.9c0.7,1.9,2.7,6.5,5.8,13.9c2.2-5.1,3.9-9.3,5-12.4c1-2.6,1.5-4.5,1.5-5.6
	c0-1.6-1.3-2.7-3.9-3.2v-0.6h11.3v0.6c-1,0.3-1.7,0.5-2.1,0.7c-0.5,0.2-1.1,0.7-1.9,1.6c-0.8,0.9-1.5,2.1-2.1,3.6
	C122.6,287.2,119.5,294.7,118.2,298z M150.4,280.8c-1.1,1.3-3.3,2.7-6.5,4.3c-3.2,1.6-4.8,3.8-4.8,6.6c0,1.5,0.5,2.7,1.4,3.6
	c0.9,0.9,2.1,1.4,3.5,1.4c4,0,6.1-2.8,6.3-8.4C150.3,286.9,150.4,284.4,150.4,280.8z M162,294.3l0.5,0.3c-0.1,0.9-0.8,1.8-1.9,2.5
	c-1.2,0.7-2.7,1.1-4.5,1.1c-1.9,0-3.3-0.3-4.3-1c-1-0.7-1.5-1.7-1.6-2.8c-2.4,2.6-5.2,3.9-8.5,3.9c-2.6,0-4.7-0.6-6.2-1.9
	c-1.4-1.3-2.1-3-2.1-5.2c0-1.8,0.6-3.4,1.7-4.7c1.2-1.3,2.8-2.3,4.8-2.8c0.6-0.2,1.5-0.4,2.7-0.6c1.2-0.2,2.2-0.4,3-0.6
	c0.9-0.2,1.6-0.5,2.2-0.8c0.9-0.5,1.6-1.2,1.9-1.9c0.4-0.8,0.6-1.9,0.6-3.5c0-2-0.5-3.7-1.4-5c-0.9-1.4-2.2-2.1-3.9-2.1
	c-1.6,0-2.8,0.5-3.6,1.4c-0.4,0.5-0.9,1.5-1.4,3c-0.4,1.5-1.3,2.3-2.6,2.3c-0.6,0-1.2-0.2-1.7-0.6c-0.5-0.5-0.7-1.1-0.7-1.9
	c0-1.3,0.8-2.5,2.5-3.5c1.7-1,4.1-1.6,7.3-1.6c7.1,0,10.7,2.3,10.7,6.8v14.8c0,2.5,0.2,4.3,0.7,5.2c0.5,0.9,1.4,1.4,2.7,1.4
	C160.5,296.5,161.5,295.8,162,294.3z M177.6,297.3h-14.9v-0.6c1.9-0.2,3.1-0.7,3.8-1.4c0.7-0.7,1-2.4,1-4.9v-12.8
	c0-5.2-1.3-7.8-3.8-7.8h-1.2v-0.6l9.3-1.4h0.2l0.8,6c1.9-3.7,4.6-5.6,8.1-5.6c1.6,0,2.8,0.4,3.6,1.1c0.8,0.7,1.2,1.4,1.2,2.1
	s-0.2,1.4-0.6,1.9c-0.4,0.5-1,0.8-1.7,0.8c-0.4,0-0.7,0-1-0.1c-0.3-0.1-0.5-0.3-0.8-0.5c-0.3-0.3-0.4-0.4-0.5-0.5
	c0-0.1-0.2-0.3-0.5-0.8c-0.9-1.3-1.8-1.9-2.6-1.9c-1,0-2,0.5-2.8,1.5c-0.8,0.9-1.4,2.2-1.8,3.6c-0.4,1.9-0.6,4.8-0.6,8.5
	c0,2.2,0,4.8,0.1,7.8c0,1.9,0.5,3.1,1.4,3.8c0.9,0.6,2.1,1,3.5,1.1V297.3z M208.9,292c0.6-1.6,0.9-4.3,0.9-8.2
	c0-4.5-0.4-7.8-1.2-9.8c-1.3-3.2-3.5-4.8-6.9-4.8c-2.6,0-4.7,1.4-6.4,4.3c-1.7,2.8-2.5,6.1-2.5,9.8c0,3.9,0.8,7.3,2.5,10
	c1.6,2.7,3.9,4.1,6.7,4.1C205.3,297.3,207.6,295.6,208.9,292z M219.9,297.1l-9.6,1.1h-0.2l-0.5-3.4c-2.2,2.4-5,3.6-8.5,3.6
	c-4.3,0-7.8-1.4-10.5-4.1c-2.6-2.7-3.9-6.3-3.9-10.8c0-4.5,1.4-8.1,4.3-10.9c2.9-2.8,6.3-4.2,10.3-4.2c3.6,0,6.4,1.1,8.4,3.4v-12.9
	c0-2.7-0.4-4.4-1.2-5.2c-0.8-0.9-2.2-1.3-4.1-1.4v-0.6l10.4-0.6h0.3c-0.1,4.3-0.1,7.8-0.1,10.4v28.2c0,1,0,1.8,0,2.3
	c0,0.4,0.1,1,0.3,1.7c0.2,0.7,0.4,1.3,0.8,1.6c0.3,0.3,0.8,0.7,1.5,1c0.6,0.3,1.4,0.4,2.4,0.5V297.1z M279.6,283.5l1,0.2
	c-0.1,1.5-0.4,3.1-1,4.7c-0.6,1.6-1.5,3.1-2.8,4.7c-1.2,1.6-3,2.8-5.2,3.8c-2.3,1-4.9,1.5-8,1.5c-7.6,0-13.5-2.1-17.6-6.2
	c-4.1-4.1-6.2-9.5-6.2-16.2c0-7.7,2.2-13.7,6.7-18.2c4.5-4.4,10.3-6.7,17.5-6.7c2,0,3.9,0.2,5.8,0.6c1.8,0.4,3.3,0.8,4.3,1.2
	c1.1,0.4,1.7,0.6,2,0.6c0.9,0,1.6-0.6,2.2-1.8h0.6l0.6,15h-0.7c-1.7-5-3.8-8.7-6.4-11c-2.6-2.3-5.4-3.5-8.4-3.5
	c-4.3,0-8,2.1-11.2,6.3c-3.2,4.2-4.7,9.6-4.7,16.2c0,6.5,1.5,11.7,4.4,15.6c3,3.9,7.1,5.9,12.2,5.9c4.4,0,7.9-1.1,10.3-3.4
	C277.4,290.4,279,287.4,279.6,283.5z M297.5,297.3h-14.9v-0.6c1.9-0.2,3.1-0.7,3.8-1.4c0.7-0.7,1-2.4,1-4.9v-12.8
	c0-5.2-1.3-7.8-3.8-7.8h-1.2v-0.6l9.3-1.4h0.2l0.8,6c1.9-3.7,4.6-5.6,8.1-5.6c1.6,0,2.8,0.4,3.6,1.1c0.8,0.7,1.2,1.4,1.2,2.1
	s-0.2,1.4-0.6,1.9c-0.4,0.5-0.9,0.8-1.7,0.8c-0.4,0-0.7,0-1-0.1c-0.3-0.1-0.5-0.3-0.8-0.5c-0.3-0.3-0.4-0.4-0.5-0.5
	c0-0.1-0.2-0.3-0.5-0.8c-0.9-1.3-1.8-1.9-2.6-1.9c-1,0-2,0.5-2.8,1.5c-0.8,0.9-1.4,2.2-1.8,3.6c-0.4,1.9-0.6,4.8-0.6,8.5
	c0,2.2,0,4.8,0.1,7.8c0,1.9,0.5,3.1,1.4,3.8c0.9,0.6,2.1,1,3.5,1.1V297.3z M315.9,256.7c-0.6,0.6-1.3,0.8-2.1,0.8
	c-0.8,0-1.5-0.3-2.1-0.9c-0.6-0.6-0.9-1.3-0.9-2.1c0-0.8,0.3-1.5,0.9-2.1c0.6-0.6,1.3-0.9,2.1-0.9c0.8,0,1.5,0.3,2.1,0.9
	c0.6,0.6,0.8,1.3,0.8,2.1C316.7,255.3,316.5,256.1,315.9,256.7z M321,297.3h-15v-0.6c2.2-0.3,3.6-0.9,4.2-1.7c0.6-0.9,1-2.8,1-6
	v-11.8c0-0.1,0-0.5,0-1.1s0-1,0-1.2c0-0.2,0-0.6-0.1-1.1c0-0.5,0-0.9-0.1-1.1c-0.1-0.2-0.2-0.5-0.3-0.9s-0.3-0.7-0.6-0.8
	c-0.2-0.2-0.5-0.4-0.8-0.6c-0.3-0.2-0.7-0.4-1.1-0.5c-0.4-0.1-0.9-0.1-1.4-0.1v-0.6l9.5-1.4h0.2c0,8.1-0.1,13.5-0.1,16.1
	c0,3.8,0,6.5,0.1,8c0,1,0.1,1.8,0.3,2.5c0.3,0.6,0.6,1.1,1.2,1.4c0.6,0.3,1,0.5,1.4,0.6c0.3,0.1,0.9,0.2,1.7,0.3V297.3z M338,296.7
	v0.6h-14.7v-0.6c1.9-0.2,3.1-0.8,3.8-1.7c0.7-0.9,1.1-2.9,1.1-6v-13.2c0-3.9-1.6-5.9-4.7-5.9v-0.6l9.1-1.2h0.2l0.6,4.6
	c2.1-3,5.2-4.5,9.3-4.5c4.7,0,7.7,1.5,8.9,4.6c2.1-3.1,5.3-4.6,9.6-4.6c2.7,0,4.9,0.6,6.7,1.8c1.9,1.2,2.8,3,2.8,5.4V291
	c0,0.5,0,1,0.1,1.5c0.1,0.4,0.2,0.8,0.2,1.2c0.1,0.3,0.2,0.6,0.4,0.9c0.2,0.3,0.3,0.5,0.4,0.6c0.1,0.2,0.3,0.3,0.5,0.5
	c0.3,0.1,0.4,0.2,0.5,0.3c0.1,0.1,0.4,0.2,0.7,0.3s0.6,0.1,0.6,0.1c0.1,0,0.3,0,0.6,0.1c0.4,0,0.6,0.1,0.6,0.1v0.6h-15v-0.7
	c0.8-0.1,1.4-0.2,1.8-0.3c0.4-0.1,0.9-0.3,1.4-0.6c0.6-0.3,1-0.9,1.3-1.7c0.3-0.8,0.4-1.9,0.4-3.1c0-6.3,0-10.9-0.1-13.5
	c-0.1-5.3-2.1-7.9-6.2-7.9c-1.6,0-3,0.5-4.2,1.4c-1.2,0.9-2,2.4-2.4,4.4c-0.3,1.8-0.5,4.4-0.5,8c0,3.5,0,6.1,0.1,7.8
	c0,0.5,0,1,0.1,1.4c0.1,0.4,0.2,0.8,0.2,1.2c0.1,0.3,0.2,0.6,0.4,0.9c0.2,0.3,0.3,0.5,0.3,0.6c0.1,0.2,0.3,0.3,0.5,0.5
	c0.3,0.1,0.5,0.2,0.5,0.3c0.1,0.1,0.3,0.2,0.6,0.3s0.5,0.2,0.6,0.2c0,0,0.3,0,0.6,0.1l0.6,0.1v0.6h-14.8v-0.7
	c0.8-0.1,1.4-0.2,1.7-0.3c0.4-0.1,0.9-0.3,1.4-0.6c0.6-0.3,1-0.9,1.2-1.7c0.3-0.8,0.5-1.9,0.5-3.1c0-2,0.1-4.3,0.1-7v-6.5
	c0-5.3-2-7.9-6.1-7.9c-3.6,0-5.9,2-6.7,6c-0.4,1.7-0.6,4.5-0.6,8.5c0,2.3,0,5,0.1,7.9c0,1.2,0.2,2.2,0.7,2.9c0.5,0.7,1,1.1,1.5,1.4
	C336.2,296.3,337,296.5,338,296.7z M378.9,298.3h-0.5l-0.6-10l0.6-0.1c0.5,2.4,1.5,4.5,3,6.4c1.6,1.9,3.4,2.8,5.6,2.8
	c1.6,0,2.9-0.4,4.1-1.3s1.7-2.1,1.7-3.7c0-1.4-0.5-2.7-1.6-3.8c-1-1.2-2.8-2.4-5.4-3.7c-4.7-2.3-7.1-5.3-7.1-8.9
	c0-2.1,0.9-3.9,2.6-5.4c1.8-1.6,3.9-2.4,6.5-2.4c0.9,0,2,0.2,3.3,0.6c1.4,0.4,2.2,0.6,2.3,0.6c0.5,0,0.9-0.3,1.2-1h0.6l0.6,8.4h-0.6
	c-1.9-5.1-4.3-7.6-7.4-7.6c-1.5,0-2.7,0.5-3.6,1.4c-0.9,0.9-1.4,1.9-1.4,2.8c0,1.5,0.5,2.8,1.4,3.9c0.9,1,2.7,2.1,5.2,3.2
	c2.8,1.3,4.9,2.7,6.2,4.1c1.3,1.4,2,3.2,2,5.4c0,2.5-0.9,4.5-2.8,6c-1.9,1.6-4.4,2.3-7.7,2.3c-1.3,0-2.8-0.3-4.3-0.8
	c-1.5-0.5-2.3-0.8-2.5-0.8C380,296.8,379.4,297.3,378.9,298.3z M432.3,283.3c0,4.3-1.6,7.9-4.9,10.7c-3.3,2.8-6.9,4.3-10.7,4.3
	c-4.4,0-8.1-1.5-11.1-4.5c-3.1-3-4.6-6.6-4.6-10.6c0-3.9,1.5-7.3,4.5-10.4c3-3.1,6.8-4.6,11.2-4.6c4.7,0,8.4,1.5,11.3,4.5
	C430.8,275.7,432.3,279.2,432.3,283.3z M416.6,297.3c3.2,0,5.6-1.4,7.1-4.1c1.6-2.8,2.4-6.1,2.4-9.9c0-4-0.9-7.3-2.7-10
	c-1.8-2.7-4.1-4.1-6.8-4.1c-3.2,0-5.6,1.3-7.2,4c-1.6,2.7-2.4,6-2.4,10c0,3.9,0.9,7.3,2.7,10C411.6,296,413.9,297.3,416.6,297.3z
	 M449.7,296.7v0.6h-14.8v-0.6c1.9-0.2,3.1-0.8,3.8-1.7c0.7-0.9,1-2.9,1-6c0-1.1,0-3.2,0-6.3c0-3.2,0.1-5.5,0.1-6.9
	c0-3.9-1.6-5.9-4.7-5.9v-0.6l9.1-1.4h0.2l0.7,5.3c0.9-1.5,2.1-2.7,3.8-3.6c1.7-0.9,3.6-1.4,5.8-1.4c2.7,0,4.9,0.6,6.7,1.7
	c1.8,1.1,2.7,2.8,2.7,5.2v16c0,0.6,0,1.1,0.1,1.6c0,0.5,0.1,0.9,0.3,1.2c0.2,0.3,0.3,0.6,0.4,0.9c0.1,0.3,0.3,0.5,0.6,0.7
	c0.3,0.2,0.5,0.3,0.6,0.5c0.1,0.1,0.4,0.2,0.7,0.3c0.3,0.1,0.6,0.2,0.6,0.2c0.1,0,0.4,0.1,0.8,0.2c0.4,0,0.7,0.1,0.8,0.1v0.6h-15.1
	v-0.7c0.8-0.1,1.4-0.2,1.8-0.3c0.4-0.1,0.9-0.3,1.5-0.6c0.6-0.3,1.1-0.9,1.4-1.7c0.3-0.8,0.5-1.9,0.5-3.1c0-5.2,0-9.8-0.1-13.7
	c0-2.6-0.5-4.5-1.5-5.8c-0.9-1.3-2.5-1.9-4.7-1.9c-1.6,0-3.1,0.5-4.4,1.6c-1.3,1-2.2,2.5-2.7,4.6c-0.4,1.9-0.6,4.7-0.6,8.4
	c0,2.3,0,5,0.1,7.9c0,1.2,0.2,2.2,0.7,2.9c0.5,0.7,1,1.1,1.6,1.4C447.9,296.3,448.7,296.5,449.7,296.7z"/>
</svg>
